<svg width="24" height="25" viewBox="0 0 24 25" fill="none" xmlns="http://www.w3.org/2000/svg">
<path fill-rule="evenodd" clip-rule="evenodd" d="M4.49818 3L4.5 3H17L17.0018 3C17.6638 3.00192 18.2981 3.26574 18.7662 3.73383C19.2342 4.20191 19.4981 4.83622 19.5 5.49818L19.5 5.5V6.125H18.25V5.50107C18.2488 5.16963 18.1167 4.85209 17.8823 4.61771C17.6479 4.38335 17.3304 4.25118 16.999 4.25H4.50099C4.16958 4.25118 3.85207 4.38335 3.61771 4.61771C3.38335 4.85207 3.25118 5.16958 3.25 5.50099V15.499C3.25118 15.8304 3.38335 16.1479 3.61771 16.3823C3.85209 16.6167 4.16963 16.7488 4.50107 16.75H5.125V18H4.5L4.49818 18C3.83622 17.9981 3.20191 17.7342 2.73383 17.2662C2.26574 16.7981 2.00192 16.1638 2 15.5018L2 15.5V5.5L2 5.49818C2.00192 4.83622 2.26574 4.20191 2.73383 3.73383C3.20191 3.26574 3.83622 3.00192 4.49818 3Z" fill="white"/>
<path fill-rule="evenodd" clip-rule="evenodd" d="M7.54648 7.375C6.89949 7.375 6.375 7.89949 6.375 8.54648V18.0785C6.375 18.7255 6.89949 19.25 7.54648 19.25H19.5785C20.2255 19.25 20.75 18.7255 20.75 18.0785V8.54648C20.75 7.89949 20.2255 7.375 19.5785 7.375H7.54648ZM5.125 8.54648C5.125 7.20913 6.20913 6.125 7.54648 6.125H19.5785C20.9159 6.125 22 7.20914 22 8.54648V18.0785C22 19.4159 20.9159 20.5 19.5785 20.5H7.54648C6.20914 20.5 5.125 19.4159 5.125 18.0785V8.54648Z" fill="white"/>
<path fill-rule="evenodd" clip-rule="evenodd" d="M16.5672 9.76172C16.2443 9.76172 15.9902 10.0204 15.9902 10.3301C15.9902 10.6398 16.2443 10.8984 16.5672 10.8984C16.8901 10.8984 17.1441 10.6398 17.1441 10.3301C17.1441 10.0204 16.8901 9.76172 16.5672 9.76172ZM14.7402 10.3301C14.7402 9.3216 15.5624 8.51172 16.5672 8.51172C17.5719 8.51172 18.3941 9.32161 18.3941 10.3301C18.3941 11.3385 17.5719 12.1484 16.5672 12.1484C15.5624 12.1484 14.7402 11.3385 14.7402 10.3301Z" fill="white"/>
<path fill-rule="evenodd" clip-rule="evenodd" d="M9.90023 12.3969C10.2486 12.0901 10.7004 11.9269 11.1643 11.9402C11.6283 11.9535 12.07 12.1424 12.4002 12.4686L15.8052 15.8439C16.0504 16.0869 16.0521 16.4827 15.8091 16.7278C15.5661 16.9729 15.1704 16.9747 14.9252 16.7317L11.5217 13.3578C11.5216 13.3577 11.5215 13.3576 11.5215 13.3576C11.4164 13.2539 11.276 13.1939 11.1285 13.1897C10.981 13.1855 10.8373 13.2373 10.7265 13.3349C10.7264 13.3349 10.7264 13.3349 10.7263 13.335L6.16351 17.3608C5.90467 17.5891 5.50971 17.5644 5.28135 17.3056C5.05298 17.0468 5.07767 16.6518 5.33651 16.4234L9.90023 12.3969Z" fill="white"/>
<path fill-rule="evenodd" clip-rule="evenodd" d="M18.2147 15.6857C18.1029 15.594 17.9611 15.5468 17.8167 15.5533C17.6722 15.5598 17.5353 15.6195 17.4322 15.7209C17.432 15.7211 17.4318 15.7213 17.4316 15.7215L12.8007 20.3189C12.5557 20.562 12.16 20.5606 11.9168 20.3156C11.6736 20.0707 11.6751 19.675 11.92 19.4318L16.5524 14.8329L16.5539 14.8315C16.8771 14.5128 17.3069 14.3251 17.7603 14.3046C18.2138 14.2841 18.6588 14.4324 19.0093 14.7207L19.0107 14.7219L21.7732 17.0074C22.0392 17.2275 22.0764 17.6214 21.8564 17.8874C21.6363 18.1534 21.2423 18.1906 20.9764 17.9705L18.2153 15.6861C18.2151 15.686 18.2149 15.6858 18.2147 15.6857Z" fill="white"/>
</svg>
